<?xml version="1.0" encoding="UTF-8" standalone="no"?>
<svg xmlns="http://www.w3.org/2000/svg" version="1.1" width="200" height="200">
 <defs>
  <mask id="mask1">
   <rect width="200" height="200" style="fill:white;" />
   <path style="fill:black;" d="m 119.2,11.28 c 6.7,4.04 12.4,5.32 19.1,19.94 9.9,21.27 9.7,26.03 13.9,18.61 -0.8,1.92 -1.6,3.83 -1,5.24 0.8,0.87 1.7,0.54 2.5,0 -0.5,0.7 0.2,3.49 1.3,1.36 0.8,-1.52 0.8,-1.56 0.8,-1.56 0.5,1.34 0.2,3 0.4,3.49 1.1,1.44 2.2,-1 3.4,-3.49 0.2,2.09 0,4.38 -1.6,6.6 3.8,1.6 3.9,-3 3.1,-6.21 1.2,2.06 2.2,4.37 1.5,8.34 0.4,0.78 0.9,-0.96 1.3,-1.55 -0.1,1.14 0,3.21 -1,3.54 0.7,0.24 1.5,0.94 2.8,-0.49 0.1,3.48 -0.9,5.85 -5.7,4.85 1.5,0.94 1.7,7.61 4.3,2.76 0.9,1.45 -0.7,2.41 -1.5,5.38 -0.4,6.95 -4.8,6.05 -7.4,8.92 -0.6,3.12 -1.2,3.99 -2.1,6.3 -0.6,1.47 3.7,4.73 3.9,-1.62 0.7,6.39 -4.8,3.98 -6.8,7 -0.7,0.69 -1.4,1.23 -2.3,1.61 -5.9,3.7 -9.2,13.6 -11.8,14.8 -0.8,0.9 -6.4,0.8 -9.3,0.3 -1.4,3.5 -2.6,5.3 -4.6,7.2 -2.4,5 -4.2,16.7 2.9,22.5 11.8,9.6 15.4,12.4 30.5,15.6 30.4,6.4 30.4,25 36.7,39.4 L 7.563,199.9 C 13.03,186.3 10.47,168.3 44.14,160 c 12.23,-3 17.24,-5.9 27.54,-14.8 6.42,-5.5 5.12,-16.9 3.69,-23.1 -5.11,-0.5 -7.77,-1.9 -8.72,-3.9 -2.45,0 -5.11,0.4 -5.12,-4.8 -6.64,3.1 -9.64,-2.1 -12.7,-7.2 -3.04,-1.5 -6.79,-0.9 -7.82,-8.24 l -0.86,-2.37 c -1.4,-2 -0.75,-4.81 -0.61,-7.42 0.9,1.38 1.42,1.72 2.32,2.23 -6.76,-8.16 -2.72,-13.14 -3.65,-19.58 1.67,0.94 3.06,0.47 4.46,-0.34 L 39.73,69.8 c 0,0 12.17,-0.23 5.69,-0.97 -5.01,-0.57 -4.75,-3.44 -4.75,-3.44 1.46,0.83 2.76,1.94 4.22,0.63 -0,-1.73 0.51,-3.13 2.14,-3.83 -2.06,-3.08 1.28,-10.63 -0.29,-14 0.93,0.65 1.55,2.19 3.18,0.82 1.04,-2.79 1.59,-3.79 3.13,-4.26 0.92,-2.79 2.31,-4.75 4.5,-5.34 0,0 2.86,-9.2 4.84,-12.45 4.82,-7.92 6.87,-9.62 15.97,-15.44 8.96,-5.719 15.94,-6.042 20.43,-3.728 2.61,1.321 4.21,1.503 5.41,1.503 3.3,0 5.9,-3.513 15,1.985 z"/>
  </mask>
 </defs> 
 <rect width="200" height="200" mask="url(#mask1)" style="fill:#f9f9f9;"/>
</svg>
